<svg xmlns="http://www.w3.org/2000/svg" viewBox="0 0 949 124">
    <g id="Symbol">
        <path d="M62 124C27.8 124 0 96.2 0 62S27.8 0 62 0s62 27.8 62 62-27.8 62-62 62z" fill="#000" id="Circle"/>
        <path d="M22 62c0 22.1 17.9 40 40 40V22c-22.1 0-40 17.9-40 40z" fill="#000" id="Half-circle"/>
        <path d="M62 102c11 0 21-4.5 28.3-11.7L62 62v40z" fill="#999" id="Section"/>
    </g>
    <g id="GP">
        <path id="P" fill="#000" d="M259.3 26.5c0-1.1.9-2.1 2.1-2.1h26.4c13.8 0 25.2 11.3 25.2 24.9 0 14-11.4 25.3-25.1 25.3H274V101c0 1.1-1 2.1-2.1 2.1h-10.4c-1.2 0-2.1-1-2.1-2.1V26.5zM287 60.8c6.3 0 11.6-5.1 11.6-11.7 0-6.2-5.3-10.9-11.6-10.9h-13v22.6h13z"/>
        <path id="G" fill="#000" d="M234.9 57.6H205c-1.2 0-2.1.9-2.1 2.1v8.9c0 1.1.9 2 2.1 2h17.3v12.3l-.1.1c-4.7 3.8-10.4 6.4-17.2 6.4-14.4 0-25.1-11.9-25.1-25.9 0-14.1 10.7-26.1 25-26.1 6.3 0 12.6 2.5 17.3 6.6.9.9 2 .9 2.8 0l6.8-7.1c.9-.9.9-2.2-.1-3.1-7.6-6.8-15.8-10.4-27.1-10.4-22.4 0-40.5 18.1-40.5 40.5s18.1 40.3 40.5 40.3c6.2 0 12.3-1.4 17.9-4.2 6.6-1.9 14.4-10.6 14.4-11.5V59.7c0-1.1-.9-2.1-2-2.1z"/>
    </g>
    <g id="Analysis">
        <path id="S" fill="#999" d="M849.9 94.1l4.2-7.2c.9-1.6 2.9-1.6 3.9-.8.6.3 10 7.2 17.5 7.2 6 0 10.6-3.9 10.6-8.9 0-5.9-5-10-14.7-13.9-10.9-4.5-21.8-11.5-21.8-25.2 0-10.3 7.7-22.3 26.1-22.3 11.8 0 20.9 6 23.2 7.8 1.2.7 1.5 2.7.7 3.8l-4.4 6.6c-.9 1.4-2.7 2.3-4.1 1.4-.9-.6-9.7-6.4-16.1-6.4-6.6 0-10.2 4.4-10.2 8.1 0 5.5 4.3 9.2 13.7 13 11.3 4.5 24.3 11.3 24.3 26.2 0 12-10.3 23-26.7 23-14.6 0-23.2-6.8-25.5-9.1-1.2-.9-1.7-1.5-.7-3.3z"/>
        <path id="I" fill="#999" d="M809.6 26.4c0-1.2 1-2.2 2.2-2.2h10.8c1.2 0 2.2 1 2.2 2.2v76.8c0 1.2-1 2.2-2.2 2.2h-10.8c-1.2 0-2.2-1-2.2-2.2V26.4z"/>
        <path id="S" fill="#999" d="M733.3 94.1l4.2-7.2c.9-1.6 2.9-1.6 3.9-.8.6.3 10 7.2 17.5 7.2 6 0 10.6-3.9 10.6-8.9 0-5.9-5-10-14.7-13.9-11-4.5-21.9-11.5-21.9-25.2C732.9 35 740.6 23 759 23c11.8 0 20.9 6 23.2 7.8 1.2.7 1.5 2.7.7 3.8l-4.4 6.6c-.9 1.4-2.7 2.3-4.1 1.4-.9-.6-9.7-6.4-16.1-6.4-6.6 0-10.2 4.4-10.2 8.1 0 5.5 4.3 9.2 13.7 13 11.3 4.5 24.3 11.3 24.3 26.2 0 12-10.3 23-26.7 23-14.6 0-23.2-6.8-25.5-9.1-1.1-.9-1.7-1.5-.6-3.3z"/>
        <path id="Y" fill="#999" d="M677.2 66.3l-26.5-38.8c-.9-1.5 0-3.4 1.9-3.4h11.8c.9 0 1.5.6 1.9 1l18.6 26.7 18.6-26.7c.3-.5.9-1 1.9-1h12c1.9 0 2.8 1.9 1.9 3.4l-26.8 38.6v37c0 1.2-1 2.2-2.2 2.2h-10.7c-1.3 0-2.2-1-2.2-2.2V66.3z"/>
        <path id="L" fill="#999" d="M600 26.4c0-1.2.9-2.2 2.2-2.2h10.7c1.2 0 2.2 1 2.2 2.2v65.1h29.6c1.3 0 2.2 1 2.2 2.2v9.5c0 1.2-.9 2.2-2.2 2.2h-42.5c-1.3 0-2.2-1-2.2-2.2V26.4z"/>
        <path id="A2" fill="#999" d="M503.8 102.4l36.1-78.1c.3-.7.9-1.3 2-1.3h1.2c1.2 0 1.6.6 2 1.3l35.7 78.1c.7 1.5-.2 3-2 3h-10.1c-1.7 0-2.6-.7-3.4-2.3l-5.7-12.5H525l-5.7 12.5c-.5 1.2-1.5 2.3-3.4 2.3h-10.1c-1.7 0-2.7-1.5-2-3zM554 77.7l-11.6-25.5h-.4l-11.4 25.5H554z"/>
        <path id="N" fill="#999" d="M416 25.1c0-1.2 1-2.1 2.2-2.1h2.9l48.3 51.3h.1V26.4c0-1.2.9-2.2 2.2-2.2h10.7c1.2 0 2.2 1 2.2 2.2v78.1c0 1.2-1 2.1-2.2 2.1h-2.8l-48.5-53.3h-.1v49.9c0 1.2-.9 2.2-2.2 2.2h-10.6c-1.2 0-2.2-1-2.2-2.2V25.1z"/>
        <path id="A1" fill="#999" d="M323.9 100.2l35-75.7c.3-.7.9-1.2 1.9-1.2h1.1c1.1 0 1.6.6 1.9 1.2l34.7 75.7c.7 1.5-.2 2.9-1.9 2.9h-9.8c-1.7 0-2.5-.7-3.3-2.3L378 88.7h-33.6l-5.5 12.2c-.5 1.1-1.5 2.3-3.3 2.3h-9.8c-1.7-.1-2.6-1.5-1.9-3zm48.6-24l-11.2-24.8h-.3l-11 24.8h22.5z"/>
    </g>
    <g id="Registered">
        <path id="Circle" fill="#999" d="M931.4 58.6c-9.7 0-17.6-7.9-17.6-17.6s7.9-17.6 17.6-17.6 17.6 8 17.6 17.7-7.9 17.5-17.6 17.5zm0-31.5c-7.7 0-14 6.3-14 14s6.3 14 14 14 14-6.3 14-14-6.2-14-14-14z"/>
        <path id="R" fill="#999" d="M930.5 39.7c1 0 1.7-.2 2.1-.6.4-.4.7-1 .7-1.8s-.2-1.4-.7-1.8c-.4-.4-1.1-.5-2.1-.5h-2v4.7h2m-2 3.2v6.9h-4.7V31.5h7.2c2.4 0 4.2.4 5.3 1.2 1.1.8 1.7 2.1 1.7 3.8 0 1.2-.3 2.2-.9 3-.6.8-1.5 1.4-2.7 1.7.7.2 1.2.5 1.7 1s1 1.3 1.6 2.4l2.6 5.2h-5l-2.2-4.6c-.4-.9-.9-1.6-1.4-1.9-.5-.3-1.1-.5-1.9-.5h-1.3"/>
    </g>
</svg>
